<?xml version="1.0" standalone="no"?>
<!DOCTYPE svg PUBLIC "-//W3C//DTD SVG 20010904//EN"
 "http://www.w3.org/TR/2001/REC-SVG-20010904/DTD/svg10.dtd">
<svg version="1.0" xmlns="http://www.w3.org/2000/svg"
 width="720.000000pt" height="480.000000pt" viewBox="0 0 720.000000 480.000000"
 preserveAspectRatio="xMidYMid meet">

<g transform="translate(0.000000,480.000000) scale(0.100000,-0.100000)"
fill="#000000" stroke="none">
<path d="M1393 2724 c-63 -23 -125 -84 -159 -156 -27 -58 -29 -72 -29 -179 0
-113 1 -118 35 -185 59 -115 166 -174 292 -160 127 13 221 94 252 219 l6 27
-64 0 -64 0 -23 -46 c-16 -35 -32 -51 -63 -65 -141 -64 -247 46 -234 245 9
133 63 196 170 196 67 0 112 -26 129 -74 l13 -36 69 0 70 0 -7 32 c-16 82 -96
163 -186 188 -51 14 -158 11 -207 -6z"/>
<path d="M2061 2721 c-142 -53 -210 -175 -198 -356 8 -112 30 -170 92 -231 63
-63 130 -89 230 -88 79 0 167 33 218 82 71 67 107 206 87 335 -19 123 -67 194
-165 245 -69 35 -187 41 -264 13z m171 -101 c51 -15 102 -75 118 -140 18 -74
9 -177 -21 -231 -75 -135 -277 -111 -319 39 -14 50 -13 166 2 215 21 69 90
123 163 126 11 1 36 -4 57 -9z"/>
<path d="M6243 2722 l-63 -3 0 -329 0 -330 230 0 230 0 0 60 0 60 -165 0 -165
0 -2 273 -3 272 -62 -3z"/>
<path d="M432 2693 c-30 -80 -222 -621 -222 -626 0 -4 31 -7 69 -7 l69 0 23
68 24 67 124 0 124 0 22 -65 22 -65 71 -3 c40 -2 72 0 72 5 0 4 -51 152 -112
330 l-113 323 -81 0 c-80 0 -82 -1 -92 -27z m132 -247 c20 -63 36 -119 36
-125 0 -7 -28 -11 -80 -11 -56 0 -80 4 -80 12 0 22 74 238 82 238 4 0 23 -51
42 -114z"/>
<path d="M2600 2390 l0 -330 235 0 235 0 0 60 0 60 -165 0 -165 0 0 270 0 270
-70 0 -70 0 0 -330z"/>
<path d="M3160 2390 l0 -330 163 0 c89 0 178 5 198 10 54 15 100 50 136 103
41 61 53 101 60 205 11 154 -41 271 -140 318 -49 22 -63 24 -234 24 l-183 0 0
-330z m347 200 c54 -33 68 -71 68 -190 0 -89 -4 -111 -22 -146 -35 -65 -63
-78 -168 -79 l-90 0 -3 218 -2 217 92 0 c75 0 99 -4 125 -20z"/>
<path d="M4070 2709 c0 -9 117 -430 162 -581 l20 -68 63 0 64 0 10 53 c6 28
28 135 49 237 35 173 53 222 60 168 4 -31 82 -418 88 -440 4 -15 17 -18 69
-18 l64 0 20 68 c11 37 26 92 35 122 8 30 40 144 70 252 31 108 56 202 56 208
0 7 -22 10 -67 8 l-66 -3 -13 -55 c-49 -204 -84 -363 -84 -380 0 -41 -18 -18
-28 38 -7 31 -28 135 -49 230 l-36 172 -73 0 -72 0 -10 -47 c-6 -27 -25 -122
-42 -213 -33 -178 -38 -196 -46 -188 -2 3 -25 95 -49 204 -25 110 -47 209 -50
222 -5 20 -11 22 -75 22 -43 0 -70 -4 -70 -11z"/>
<path d="M5030 2403 c-62 -175 -115 -324 -118 -331 -3 -10 12 -12 68 -10 l73
3 22 65 22 65 125 3 125 3 19 -68 20 -68 72 -3 c40 -2 72 1 72 6 0 9 -77 234
-170 497 -21 61 -42 120 -45 133 -6 21 -12 22 -89 22 l-83 0 -113 -317z m235
45 c19 -61 35 -117 35 -125 0 -10 -20 -13 -80 -13 -56 0 -80 4 -80 12 0 22 74
238 82 238 4 0 23 -50 43 -112z"/>
<path d="M5620 2390 l0 -330 235 0 235 0 0 60 0 60 -166 2 -165 3 0 268 0 267
-70 0 -69 0 0 -330z"/>
<path d="M6800 2670 c0 -54 -1 -55 -49 -39 -35 12 -45 7 -55 -28 -6 -18 -1
-23 31 -33 54 -17 56 -21 28 -62 -31 -46 -31 -52 -1 -71 22 -15 24 -14 52 23
16 22 32 40 36 40 4 0 20 -18 34 -40 26 -40 33 -41 66 -12 16 13 15 17 -12 58
-17 23 -27 45 -23 47 5 2 25 10 46 17 35 11 38 15 32 39 -9 35 -9 35 -46 22
-54 -19 -59 -16 -59 39 l0 50 -40 0 -40 0 0 -50z"/>
<path d="M877 2373 c-4 -3 -7 -30 -7 -60 l0 -53 130 0 130 0 0 60 0 60 -123 0
c-68 0 -127 -3 -130 -7z"/>
<path d="M3777 2373 c-4 -3 -7 -30 -7 -60 l0 -53 130 0 130 0 0 60 0 60 -123
0 c-68 0 -127 -3 -130 -7z"/>
</g>
</svg>
