<svg id="Layer_1" data-name="Layer 1" xmlns="http://www.w3.org/2000/svg" width="438.96" height="71.3" viewBox="0 0 438.96 71.3"><title>Aime Leon Dore logo - Brandlogos.net</title><path d="M224.17,365.73h7.65l10.25,28.05,10.31-28.05H260v53.35h-8.38V387.85l-7.29,19.83h-4.48l-7.29-19.83v31.23h-8.38Z" transform="translate(-164.52 -348.35)" style="fill:#181818"/><path d="M205.64,419.08V365.73H214v53.35Z" transform="translate(-164.52 -348.35)" style="fill:#181818"/><path d="M270.12,419.08V365.73h22.43v7.55H278.5v15.15h12.07V396H278.5v15.51h14V419H270.12Z" transform="translate(-164.52 -348.35)" style="fill:#181818"/><path d="M319.2,419.08V365.73h8.38v45.8h14v7.55Z" transform="translate(-164.52 -348.35)" style="fill:#181818"/><path d="M350.17,419.08V365.73H372.6v7.55h-14v15.15h12V396H358.55v15.51h14V419H350.17Z" transform="translate(-164.52 -348.35)" style="fill:#181818"/><path d="M404.09,415.18c-2.24,2.55-5.26,4.48-10.36,4.48s-8.12-1.93-10.36-4.48c-4-4.48-3.9-12.28-3.9-22.8s-.05-18.27,3.9-22.8c2.24-2.55,5.26-4.48,10.36-4.48s8.12,1.93,10.36,4.48c4,4.48,3.9,12.28,3.9,22.8S408.1,410.7,404.09,415.18Zm-6.3-40.44a4.43,4.43,0,0,0-4.06-2,4.25,4.25,0,0,0-4,2c-1.56,2.55-1.87,8-1.87,17.7s.31,15.15,1.87,17.7a4.25,4.25,0,0,0,4,2,4.49,4.49,0,0,0,4.06-2c1.56-2.55,1.82-8,1.82-17.7S399.41,377.29,397.79,374.74Z" transform="translate(-164.52 -348.35)" style="fill:#181818"/><path d="M437.56,419.08,425,387.18v31.9h-8.38V365.73h7.49l12.49,31.7v-31.7h8.38v53.35Z" transform="translate(-164.52 -348.35)" style="fill:#181818"/><path d="M495.54,414.66c-2.19,2.5-5.26,4.42-10.36,4.42H471.6V365.73h13.58c5.1,0,8.17,1.93,10.36,4.42,4,4.42,3.9,12,3.9,22.28S499.49,410.23,495.54,414.66Zm-6.3-39.19a4.91,4.91,0,0,0-4.27-2.19H480v38.2H485a4.8,4.8,0,0,0,4.27-2.19c1.56-2.5,1.82-7.7,1.82-17S490.8,378,489.24,375.47Z" transform="translate(-164.52 -348.35)" style="fill:#181818"/><path d="M531.86,415.18c-2.24,2.55-5.26,4.48-10.36,4.48s-8.12-1.93-10.36-4.48c-4-4.48-3.9-12.28-3.9-22.8s-.05-18.27,3.9-22.8c2.24-2.55,5.26-4.48,10.36-4.48s8.12,1.93,10.36,4.48c4,4.48,3.9,12.28,3.9,22.8S535.87,410.7,531.86,415.18Zm-6.3-40.44a4.43,4.43,0,0,0-4.06-2,4.25,4.25,0,0,0-4,2c-1.56,2.55-1.87,8-1.87,17.7s.31,15.15,1.87,17.7a4.25,4.25,0,0,0,4,2,4.49,4.49,0,0,0,4.06-2c1.56-2.55,1.82-8,1.82-17.7S527.18,377.29,525.57,374.74Z" transform="translate(-164.52 -348.35)" style="fill:#181818"/><path d="M564.4,419.08l-7.34-21.86h-4.37v21.86H544.3V365.73h13.48c9.73,0,13.64,4.74,13.64,15.72,0,6.61-1.35,11.29-6.24,13.95l8,23.68Zm-6.51-45.8h-5.15v16.34h5.15c4.48,0,5.15-3.75,5.15-8.17S562.37,373.28,557.89,373.28Z" transform="translate(-164.52 -348.35)" style="fill:#181818"/><path d="M581.05,419.08V365.73h22.43v7.55h-14v15.15h12.07V396H589.48v15.51h14V419H581.05Z" transform="translate(-164.52 -348.35)" style="fill:#181818"/><path d="M283.65,358.76h-5.52l5.41-10.41h6.66Z" transform="translate(-164.52 -348.35)" style="fill:#181818"/><path d="M185.75,365.73l13,53.35H190.6l-2.34-9.68H175l-2.34,9.68h-8.12l13-53.35Zm.62,36.12-4.79-19.67-4.79,19.67Z" transform="translate(-164.52 -348.35)" style="fill:#181818"/></svg>