<?xml version="1.0" standalone="no"?>
<!DOCTYPE svg PUBLIC "-//W3C//DTD SVG 20010904//EN"
 "http://www.w3.org/TR/2001/REC-SVG-20010904/DTD/svg10.dtd">
<svg version="1.0" xmlns="http://www.w3.org/2000/svg"
 width="750.000000pt" height="260.000000pt" viewBox="0 0 750.000000 260.000000"
 preserveAspectRatio="xMidYMid meet">

<g transform="translate(0.000000,260.000000) scale(0.100000,-0.100000)"
fill="#000000" stroke="none">
<path d="M4929 1867 c-68 -26 -102 -52 -130 -102 -35 -63 -49 -147 -49 -305 0
-347 64 -470 247 -470 70 0 131 28 157 72 18 29 20 30 27 12 4 -10 8 -29 8
-42 1 -21 5 -23 54 -20 l52 3 0 225 0 225 -132 3 -133 3 0 -66 0 -65 55 0 55
0 0 -60 c0 -108 -38 -160 -116 -160 -92 0 -114 59 -114 310 0 274 19 324 122
324 44 0 54 -4 79 -32 20 -22 30 -47 35 -82 l7 -51 71 3 71 3 -3 55 c-7 103
-51 172 -137 209 -45 20 -183 24 -226 8z"/>
<path d="M6629 1852 c-60 -31 -111 -102 -123 -169 -26 -159 -14 -475 22 -557
43 -96 146 -146 276 -132 184 19 237 119 239 446 1 216 -16 301 -72 363 -53
59 -99 77 -202 77 -76 0 -94 -4 -140 -28z m217 -126 c35 -40 47 -139 41 -331
-2 -94 -10 -187 -16 -208 -15 -46 -47 -68 -101 -69 -92 -1 -114 63 -113 327 0
215 14 277 67 301 42 19 96 10 122 -20z"/>
<path d="M665 1848 c-4 -13 -50 -211 -141 -618 -24 -107 -44 -201 -44 -208 0
-10 19 -12 78 -10 l77 3 20 95 c11 52 24 101 28 108 5 8 36 12 92 12 97 0 85
15 115 -135 l16 -80 82 -3 c62 -2 82 0 82 10 0 12 -59 278 -110 498 -11 47
-33 141 -49 210 l-28 125 -107 3 c-80 2 -108 -1 -111 -10z m119 -195 c29 -147
56 -292 56 -297 0 -9 -128 -7 -133 2 -6 10 56 322 64 322 4 0 10 -12 13 -27z"/>
<path d="M1120 1852 c0 -6 26 -63 59 -128 32 -66 75 -154 95 -197 l38 -78 -20
-47 c-11 -26 -57 -120 -101 -210 -45 -89 -81 -167 -81 -172 0 -15 156 -13 167
3 5 6 16 28 23 47 8 19 33 78 57 130 l44 95 55 -125 c30 -69 59 -132 63 -140
6 -11 30 -16 95 -18 47 -1 86 -1 86 1 0 2 -47 100 -104 218 l-104 214 99 197
c55 109 99 202 99 208 0 15 -155 13 -168 -2 -5 -7 -29 -58 -52 -113 -66 -155
-59 -155 -122 -8 l-55 128 -86 3 c-49 1 -87 -1 -87 -6z"/>
<path d="M1772 1438 l3 -423 220 0 220 0 3 68 3 67 -146 0 -145 0 0 120 0 119
128 3 127 3 0 65 0 65 -128 3 -128 3 3 97 3 97 138 3 137 3 0 64 0 65 -220 0
-220 0 2 -422z"/>
<path d="M2322 1438 l3 -423 220 0 220 0 3 68 3 67 -145 0 -146 0 -2 353 -3
352 -78 3 -77 3 2 -423z"/>
<path d="M3296 1848 c-3 -7 -14 -56 -26 -108 -11 -52 -27 -122 -35 -155 -8
-33 -30 -132 -50 -220 -20 -88 -45 -196 -55 -240 -30 -121 -32 -115 54 -115
41 0 77 4 80 8 3 5 13 49 22 98 10 49 22 95 27 102 7 9 35 12 96 10 l85 -3 21
-105 21 -105 83 -3 84 -3 -7 43 c-4 24 -18 88 -31 143 -21 89 -56 239 -115
502 -10 44 -24 99 -30 122 l-11 41 -105 0 c-75 0 -106 -4 -108 -12z m123 -220
c12 -62 51 -271 51 -275 0 -2 -29 -3 -65 -3 -78 0 -76 -9 -40 174 14 69 25
135 25 146 0 42 17 17 29 -42z"/>
<path d="M3792 1438 l3 -423 75 0 75 0 3 189 2 189 70 -6 c128 -11 141 -29
149 -215 4 -75 10 -143 14 -149 6 -9 36 -13 93 -13 46 0 84 2 84 4 0 2 -7 20
-15 39 -8 20 -19 95 -24 166 -5 71 -15 140 -21 153 -18 33 -51 68 -67 68 -23
0 -14 19 18 35 42 22 69 84 69 160 0 120 -43 193 -124 214 -25 6 -125 11 -226
11 l-180 0 2 -422z m334 287 c49 -32 55 -139 11 -191 -20 -22 -32 -26 -105
-31 l-82 -6 0 128 0 128 77 -7 c42 -3 87 -13 99 -21z"/>
<path d="M4460 1435 l0 -425 75 0 75 0 0 425 0 425 -75 0 -75 0 0 -425z"/>
<path d="M5565 1848 c-2 -7 -11 -44 -19 -83 -18 -82 -128 -571 -150 -665 -23
-96 -27 -91 62 -88 l77 3 20 97 c11 53 25 102 31 108 7 7 44 10 95 8 l84 -3
20 -105 20 -105 83 -3 c70 -2 82 0 82 13 0 16 -39 192 -125 560 -24 105 -47
208 -52 230 l-9 40 -107 3 c-80 2 -109 -1 -112 -10z m124 -220 c6 -29 18 -89
26 -133 7 -44 17 -95 21 -112 l7 -33 -65 0 c-36 0 -67 3 -70 6 -3 3 0 31 7 62
7 31 21 103 30 160 10 56 22 102 26 102 4 0 12 -24 18 -52z"/>
<path d="M5947 1853 c-13 -12 -8 -123 6 -124 6 0 46 -1 87 -2 l75 -2 5 -355 5
-355 78 0 78 0 -1 325 c0 179 2 340 6 358 l7 32 89 0 89 0 -3 63 -3 62 -256 3
c-140 1 -258 -1 -262 -5z"/>
</g>
</svg>
