<?xml version="1.0" standalone="no"?>
<!DOCTYPE svg PUBLIC "-//W3C//DTD SVG 20010904//EN"
 "http://www.w3.org/TR/2001/REC-SVG-20010904/DTD/svg10.dtd">
<svg version="1.0" xmlns="http://www.w3.org/2000/svg"
 width="612.000000pt" height="612.000000pt" viewBox="0 0 612.000000 612.000000"
 preserveAspectRatio="xMidYMid meet">

<g transform="translate(0.000000,612.000000) scale(0.100000,-0.100000)"
fill="#000000" stroke="none">
<path d="M3380 4928 c-105 -12 -342 -18 -381 -9 -23 5 -54 3 -90 -6 -39 -11
-83 -13 -159 -8 -193 11 -331 -24 -473 -121 -76 -53 -195 -184 -244 -271 -34
-61 -86 -199 -104 -278 -10 -45 -22 -191 -36 -422 -3 -62 -8 -81 -17 -77 -8 3
-21 -2 -30 -11 -28 -28 -18 -57 26 -74 27 -10 27 -11 14 -53 -7 -24 -46 -106
-88 -183 -156 -290 -172 -325 -172 -388 -1 -53 2 -61 30 -87 41 -36 111 -51
202 -43 86 7 87 3 37 -77 -38 -59 -44 -102 -19 -138 13 -19 14 -28 4 -51 -15
-38 1 -99 36 -132 44 -41 45 -57 12 -180 -34 -127 -34 -176 2 -256 28 -64 42
-77 115 -112 97 -45 147 -52 272 -39 163 17 166 17 180 -12 18 -38 21 -94 11
-210 -12 -143 -65 -300 -130 -382 -25 -32 -41 -90 -27 -102 8 -7 449 -17 784
-17 617 1 1143 13 1163 27 15 11 15 17 4 61 -32 120 -96 218 -244 374 -97 104
-122 216 -123 554 0 171 4 240 14 269 22 64 75 145 151 234 39 46 78 98 87
115 8 18 28 48 43 67 95 122 204 408 242 635 32 191 32 528 0 665 -29 120 -79
273 -105 319 -60 105 -199 249 -290 301 -66 38 -211 86 -302 101 -100 16 -319
25 -395 17z m358 -104 c201 -30 379 -129 497 -276 33 -41 67 -97 80 -132 12
-34 32 -86 43 -116 51 -133 64 -217 65 -395 1 -93 -5 -215 -12 -270 -14 -117
-53 -282 -76 -328 -9 -18 -27 -60 -41 -95 -21 -57 -118 -244 -180 -347 -13
-22 -57 -80 -99 -130 -93 -111 -148 -217 -165 -316 -16 -93 -6 -415 16 -549
24 -144 54 -202 180 -343 48 -54 124 -180 124 -206 0 -9 -217 -10 -832 -6
-458 3 -834 8 -836 10 -2 1 11 30 27 64 46 91 62 182 64 371 3 251 -7 262
-240 235 -133 -15 -140 -15 -200 4 -84 27 -118 46 -141 78 -36 51 -36 85 -1
221 37 146 35 187 -12 234 -47 47 -50 59 -28 107 20 45 19 49 -19 89 -10 11
-8 19 8 42 35 49 52 101 45 137 -9 52 -40 66 -140 64 -94 -2 -149 15 -159 47
-9 27 6 62 107 244 90 162 143 277 154 328 4 23 10 30 22 25 9 -4 44 -16 79
-26 55 -18 62 -22 58 -42 -3 -12 -10 -46 -16 -75 -19 -84 -18 -85 113 -80 105
4 116 6 149 31 50 38 80 113 81 197 0 78 -19 115 -70 136 -35 15 -190 19 -210
6 -7 -5 -17 -29 -22 -56 -5 -26 -11 -49 -13 -51 -2 -3 -39 7 -81 21 -63 21
-78 30 -83 50 -15 59 27 472 54 541 11 26 31 77 44 113 39 102 117 204 229
297 87 72 109 85 181 108 119 37 297 51 463 37 170 -15 227 -15 365 3 200 26
250 26 428 -1z m-1388 -1154 c26 -26 26 -75 1 -133 -22 -51 -37 -62 -99 -70
-31 -4 -45 -1 -49 8 -5 14 22 189 32 206 12 18 94 10 115 -11z"/>
<path d="M2997 4269 c-9 -6 -33 -42 -53 -80 -19 -39 -62 -113 -95 -165 -61
-94 -66 -114 -32 -132 30 -16 61 4 87 56 26 51 43 62 103 62 27 0 34 -4 39
-27 18 -85 24 -93 60 -93 23 0 37 6 41 17 10 25 -76 360 -94 367 -21 8 -35 7
-56 -5z m27 -141 c12 -47 8 -58 -24 -58 -34 0 -37 10 -13 51 21 35 29 36 37 7z"/>
<path d="M3258 4268 c-10 -9 -25 -66 -43 -163 -40 -221 -41 -215 11 -215 42 0
48 12 64 134 7 48 19 111 26 140 8 28 14 63 14 77 0 37 -40 52 -72 27z"/>
<path d="M3638 4268 c-12 -10 -20 -41 -28 -118 -11 -100 -18 -127 -27 -105 -2
6 -25 57 -51 115 l-47 105 -40 0 -40 0 -8 -50 c-5 -27 -18 -93 -29 -145 -31
-144 -32 -155 -14 -173 11 -11 24 -13 43 -8 30 8 34 21 48 164 4 37 11 67 16
65 6 -2 28 -44 50 -93 62 -142 58 -136 98 -133 32 3 37 7 43 38 4 19 17 85 29
145 12 61 22 130 23 155 1 41 -1 45 -24 48 -14 2 -33 -3 -42 -10z"/>
<path d="M2178 4262 c-10 -2 -20 -13 -22 -25 -17 -95 -49 -277 -53 -297 -7
-46 7 -53 103 -51 115 2 161 16 185 55 21 35 25 93 7 130 -9 21 -8 29 5 44 23
26 22 94 -2 123 -17 22 -27 24 -112 24 -52 0 -102 -1 -111 -3z m159 -88 c10
-26 -11 -48 -48 -54 -63 -10 -81 6 -63 54 9 23 102 23 111 0z m-17 -139 c19
-23 2 -54 -39 -66 -73 -22 -103 -2 -82 54 9 24 16 27 60 27 30 0 53 -5 61 -15z"/>
<path d="M2493 4258 c-6 -7 -13 -42 -17 -78 -4 -36 -16 -102 -27 -148 -10 -46
-19 -97 -19 -113 0 -29 2 -30 37 -27 42 3 47 13 58 101 7 52 20 63 61 53 19
-5 31 -21 50 -64 37 -86 37 -87 80 -87 34 0 39 3 42 25 2 15 -11 48 -32 83
l-35 58 23 9 c41 15 66 58 66 111 0 39 -4 51 -26 68 -23 18 -41 21 -139 21
-78 0 -116 -4 -122 -12z m188 -68 c41 -23 10 -64 -58 -75 -62 -10 -85 0 -77
33 4 15 11 33 17 40 12 15 91 16 118 2z"/>
<path d="M3793 4133 c-24 -5 -37 -31 -27 -57 11 -27 141 -27 162 1 16 22 15
28 -4 47 -15 15 -77 20 -131 9z"/>
<path d="M2630 3771 l-115 -6 -7 -35 c-23 -117 -50 -299 -47 -315 4 -19 14
-20 139 -23 147 -3 162 2 153 53 -5 24 -8 24 -107 27 l-101 3 3 30 c6 49 16
54 92 48 90 -8 120 0 120 32 0 34 -15 40 -105 40 l-80 0 2 29 c1 16 5 31 8 35
4 3 49 4 102 3 102 -3 113 1 113 45 0 21 -28 46 -47 41 -4 -1 -60 -4 -123 -7z"/>
<path d="M2987 3769 c-9 -6 -36 -47 -59 -92 -22 -45 -60 -111 -83 -147 -61
-94 -65 -103 -54 -123 13 -22 61 -22 81 1 9 9 23 34 31 54 17 40 41 52 98 46
32 -3 35 -6 44 -50 12 -58 24 -71 61 -66 23 2 30 9 32 29 3 25 -59 291 -78
337 -10 24 -42 29 -73 11z m33 -171 c0 -23 -4 -28 -24 -28 -35 0 -38 11 -15
50 16 26 23 30 30 19 5 -8 9 -26 9 -41z"/>
<path d="M3625 3766 c-18 -13 -18 -15 5 -82 41 -120 24 -234 -52 -349 -55 -82
-58 -87 -47 -107 14 -25 61 -23 87 5 37 40 92 140 112 206 25 80 25 148 1 236
-26 92 -62 123 -106 91z"/>
<path d="M3878 3769 c-23 -13 -23 -37 2 -90 37 -82 19 -235 -38 -318 -9 -15
-21 -33 -27 -42 -5 -9 -19 -29 -29 -44 -24 -34 -12 -59 31 -63 25 -3 36 4 60
35 50 63 102 177 115 252 10 60 9 80 -7 153 -25 109 -59 146 -107 117z"/>
<path d="M3237 3755 c-8 -8 -20 -47 -27 -87 -6 -40 -17 -107 -25 -149 -18 -91
-19 -116 -4 -125 16 -9 166 -5 209 6 70 19 120 98 128 201 9 127 -37 169 -187
169 -57 0 -84 -4 -94 -15z m178 -81 c43 -32 5 -187 -48 -198 -64 -13 -96 -16
-101 -7 -3 5 0 40 8 78 7 37 17 85 20 106 7 37 7 37 54 37 26 0 56 -7 67 -16z"/>
<path d="M2215 2729 c-69 -66 -80 -88 -58 -118 21 -31 49 -26 99 21 l45 41 42
-41 c55 -54 79 -54 134 0 l43 42 48 -47 c26 -26 56 -47 65 -47 10 0 38 19 63
42 l45 41 42 -41 c55 -54 79 -54 134 0 l43 42 48 -47 c26 -26 56 -47 65 -47
10 0 38 19 63 42 l45 41 42 -40 c53 -50 70 -57 98 -34 16 13 20 24 16 42 -9
34 -130 149 -156 149 -12 0 -42 -19 -67 -42 l-45 -41 -42 40 c-62 59 -71 60
-125 9 l-47 -44 -47 44 c-26 24 -56 44 -68 44 -11 0 -41 -19 -66 -42 l-45 -41
-42 41 c-55 54 -79 54 -134 0 l-43 -42 -48 47 c-26 26 -56 47 -66 47 -10 0
-46 -27 -81 -61z"/>
</g>
</svg>
