<?xml version="1.0" standalone="no"?>
<!DOCTYPE svg PUBLIC "-//W3C//DTD SVG 20010904//EN"
 "http://www.w3.org/TR/2001/REC-SVG-20010904/DTD/svg10.dtd">
<svg version="1.0" xmlns="http://www.w3.org/2000/svg"
 width="563.000000pt" height="604.000000pt" viewBox="0 0 563.000000 604.000000"
 preserveAspectRatio="xMidYMid meet">

<g transform="translate(0.000000,604.000000) scale(0.100000,-0.100000)"
fill="#000000" stroke="none">
<path d="M3606 4009 c-96 -8 -121 -25 -160 -103 -33 -65 -33 -63 18 -201 20
-52 38 -81 71 -112 43 -39 116 -73 159 -73 51 0 141 83 157 145 17 62 -2 195
-34 243 -46 65 -81 100 -107 104 -14 3 -60 1 -104 -3z"/>
<path d="M1995 3994 c-58 -30 -175 -125 -190 -154 -21 -41 -19 -77 11 -182 30
-109 56 -163 87 -180 13 -7 56 -11 110 -10 83 3 95 6 175 46 163 83 199 153
153 303 -20 65 -84 157 -124 180 -33 18 -185 16 -222 -3z"/>
<path d="M2038 3187 c-21 -7 -74 -39 -119 -71 -84 -62 -109 -97 -109 -154 0
-36 46 -195 71 -244 28 -55 48 -62 157 -55 86 6 102 11 171 48 156 83 186 146
141 292 -27 86 -95 172 -148 187 -48 13 -117 12 -164 -3z"/>
<path d="M3599 3190 c-108 -8 -145 -34 -175 -123 -16 -48 -16 -49 15 -127 17
-44 31 -84 31 -89 0 -22 76 -95 119 -114 64 -28 122 -26 165 6 69 53 81 81 81
187 0 86 -3 100 -29 147 -32 57 -81 109 -111 115 -11 3 -54 2 -96 -2z"/>
<path d="M1535 2384 c-72 -37 -110 -96 -101 -156 11 -68 58 -172 95 -211 46
-49 346 -249 492 -328 141 -76 189 -88 369 -95 144 -6 317 10 385 36 15 6 41
10 60 10 19 0 62 7 97 15 35 8 105 19 156 25 51 6 123 20 160 31 40 12 120 24
197 29 143 9 177 19 290 84 95 56 233 193 276 275 19 36 44 83 56 105 32 58
31 129 -2 161 -13 14 -30 25 -37 25 -28 0 -62 -35 -115 -119 -30 -47 -74 -105
-97 -129 -63 -66 -168 -140 -227 -161 -30 -11 -86 -33 -126 -50 -85 -37 -210
-68 -348 -86 -55 -8 -167 -25 -250 -39 -82 -13 -175 -27 -205 -31 -30 -3 -85
-11 -122 -17 -79 -13 -200 6 -338 55 -122 42 -171 69 -292 159 -152 113 -186
156 -248 313 -46 117 -64 131 -125 99z"/>
</g>
</svg>
