<?xml version="1.0" standalone="no"?>
<!DOCTYPE svg PUBLIC "-//W3C//DTD SVG 20010904//EN"
 "http://www.w3.org/TR/2001/REC-SVG-20010904/DTD/svg10.dtd">
<svg version="1.0" xmlns="http://www.w3.org/2000/svg"
 width="225.000000pt" height="225.000000pt" viewBox="0 0 225.000000 225.000000"
 preserveAspectRatio="xMidYMid meet">

<g transform="translate(0.000000,225.000000) scale(0.100000,-0.100000)"
fill="#000000" stroke="none">
<path d="M270 1140 c0 -232 4 -370 10 -370 5 0 7 6 5 13 -4 10 149 117 169
117 3 0 6 -8 6 -17 0 -12 -29 -35 -78 -65 -42 -27 -70 -48 -60 -48 9 0 47 20
85 45 39 26 80 45 96 45 15 0 27 -2 27 -4 0 -3 -30 -23 -67 -45 -58 -35 -64
-41 -40 -41 15 0 27 4 27 9 0 18 120 82 148 79 25 -3 21 -7 -43 -45 -58 -36
-65 -43 -43 -43 14 0 28 4 30 9 8 21 120 82 146 79 25 -3 22 -6 -38 -45 -47
-31 -59 -43 -43 -43 12 0 23 4 25 8 8 21 122 83 147 80 24 -3 20 -7 -39 -46
-46 -30 -59 -42 -43 -42 12 0 23 4 25 8 2 5 35 28 75 53 40 24 183 114 319
199 312 195 294 186 294 162 0 -15 -81 -70 -319 -218 -176 -110 -312 -201
-304 -202 8 -2 22 3 31 11 20 17 579 367 587 367 3 0 5 -8 5 -17 0 -13 -87
-72 -277 -191 -197 -123 -268 -172 -249 -172 14 0 26 4 26 8 0 13 490 315 498
308 15 -16 -25 -46 -237 -177 -158 -98 -216 -139 -198 -139 14 0 27 4 29 9 2
7 229 153 396 255 8 5 12 1 12 -13 0 -14 -46 -48 -181 -133 -107 -67 -173
-114 -163 -116 9 -2 19 0 23 6 5 8 254 167 302 192 16 9 19 7 19 -9 0 -14 -37
-42 -135 -103 -78 -48 -128 -84 -118 -86 8 -2 18 0 22 5 6 10 217 143 226 143
3 0 5 -8 5 -17 0 -12 -32 -38 -90 -73 -55 -34 -84 -56 -74 -58 9 -2 19 0 23 5
17 25 133 84 158 81 26 -3 24 -6 -37 -45 -47 -31 -59 -43 -43 -43 12 0 23 4
25 8 8 19 128 83 150 80 19 -3 11 -10 -47 -45 -58 -36 -65 -43 -43 -43 14 0
28 4 30 9 2 4 29 25 61 45 42 27 67 36 90 34 31 -3 30 -4 -38 -45 -39 -24 -63
-43 -53 -43 9 0 47 20 85 45 57 38 113 58 113 40 0 -2 -28 -23 -62 -45 -45
-28 -57 -40 -41 -40 12 0 23 4 25 8 5 14 122 82 141 82 9 0 17 6 17 13 1 12
159 114 173 109 4 -1 7 8 7 20 0 13 -3 18 -8 12 -4 -6 -44 -34 -89 -63 -72
-44 -83 -48 -83 -31 0 19 69 70 147 109 18 9 33 22 33 28 0 7 -39 -12 -87 -42
-80 -50 -103 -55 -90 -22 3 7 43 35 90 62 48 28 86 56 87 62 0 7 -38 -12 -85
-42 -47 -30 -87 -55 -90 -55 -3 0 -5 8 -5 18 0 11 31 36 90 72 49 30 90 59 90
63 0 9 -25 -4 -106 -55 -70 -43 -74 -45 -74 -20 1 16 156 120 173 114 4 -1 7
5 7 14 0 9 -5 12 -12 8 -7 -4 -42 -26 -78 -49 -36 -23 -71 -45 -78 -49 -8 -5
-12 0 -12 13 0 20 68 71 147 110 18 9 33 21 33 28 0 7 -39 -12 -87 -42 -80
-50 -103 -55 -90 -22 3 7 43 35 90 62 48 28 86 56 87 62 0 7 -38 -12 -84 -42
-46 -30 -87 -55 -90 -55 -3 0 -6 8 -6 18 0 11 31 36 90 72 66 41 89 60 89 75
-1 13 -3 15 -6 5 -3 -13 -151 -110 -167 -110 -3 0 -6 8 -6 18 1 16 144 112
169 112 6 0 11 7 11 15 0 18 -1 18 -105 -49 -65 -42 -84 -45 -72 -12 6 15 143
99 163 99 8 0 14 4 14 9 0 4 -385 8 -855 8 l-855 0 0 -370z m80 352 c0 -8 -14
-16 -62 -40 -5 -2 -8 5 -8 16 0 11 6 23 13 25 20 9 57 8 57 -1z m95 -1 c-14
-12 -155 -101 -160 -101 -3 0 -5 8 -5 19 0 24 105 90 145 91 17 0 25 -4 20 -9z
m95 5 c0 -3 -48 -35 -107 -72 -60 -37 -118 -74 -130 -82 -21 -13 -23 -13 -23
6 0 26 191 150 233 151 15 1 27 -1 27 -3z m86 -4 c-9 -15 -124 -82 -140 -82
-9 0 -19 -6 -22 -14 -7 -17 -173 -121 -181 -113 -3 4 -3 12 0 20 8 22 297 197
324 197 14 0 22 -4 19 -8z m94 1 c-1 -17 -131 -84 -158 -81 -24 3 -19 7 43 45
64 39 115 55 115 36z m90 0 c-1 -16 -127 -83 -156 -83 -26 0 -22 5 41 45 63
40 115 57 115 38z m100 3 c0 -2 -30 -22 -66 -45 -41 -26 -77 -41 -97 -41 -30
0 -28 3 38 45 39 24 82 45 98 45 15 0 27 -2 27 -4z m90 0 c0 -2 -29 -23 -65
-45 -41 -26 -76 -41 -97 -41 -31 0 -29 2 37 44 39 25 82 45 98 45 15 1 27 -1
27 -3z m80 -9 c-12 -11 -160 -104 -207 -131 -9 -5 -13 0 -13 12 0 24 172 132
210 132 21 0 22 -2 10 -13z m90 -1 c-8 -8 -71 -49 -140 -91 -69 -43 -135 -85
-147 -93 -21 -13 -23 -13 -23 6 0 16 34 42 137 106 78 49 148 86 162 86 22 0
23 -2 11 -14z m100 7 c-1 -5 -93 -65 -206 -135 -172 -107 -205 -124 -202 -106
2 17 48 51 183 135 158 99 226 131 225 106z m90 0 c0 -7 -467 -302 -491 -311
-5 -2 -9 5 -9 15 0 13 67 59 228 160 200 125 272 161 272 136z m100 3 c0 -3
-533 -339 -588 -371 -10 -5 -13 -1 -10 14 4 28 530 360 571 361 15 0 27 -2 27
-4z m85 -5 c-6 -6 -161 -104 -345 -220 -244 -153 -336 -206 -338 -194 -2 8 0
19 5 24 8 8 528 334 598 375 39 23 99 34 80 15z m90 0 c-14 -24 -126 -82 -152
-79 -25 3 -21 7 42 45 63 39 125 57 110 34z m95 2 c0 -5 -29 -25 -65 -46 -42
-26 -73 -37 -92 -35 -25 3 -22 6 42 45 64 39 115 55 115 36z m90 0 c0 -17
-123 -83 -153 -83 -30 0 -28 3 38 45 63 40 115 57 115 38z m100 3 c0 -2 -29
-23 -65 -45 -42 -27 -76 -41 -97 -41 -32 0 -30 2 37 45 39 24 82 45 98 45 15
0 27 -2 27 -4z m-1080 -311 l0 -205 -180 0 -180 0 0 205 0 205 180 0 180 0 0
-205z m950 0 l0 -205 -185 0 -185 0 0 205 0 205 185 0 185 0 0 -205z m-380
178 c0 -13 -86 -72 -275 -190 -236 -147 -275 -169 -274 -150 0 18 52 54 267
189 147 92 270 167 275 167 4 1 7 -7 7 -16z m-950 -21 c0 -11 -30 -35 -82 -67
-100 -61 -98 -61 -98 -38 0 12 28 36 83 70 45 28 85 52 90 52 4 1 7 -7 7 -17z
m948 -39 c-3 -15 -518 -351 -540 -352 -5 -1 -8 7 -8 17 0 12 83 69 268 184
147 92 271 167 275 168 5 0 7 -8 5 -17z m-948 -13 c0 -18 -74 -74 -158 -119
-21 -11 -23 -11 -20 8 2 13 34 40 88 75 47 30 86 55 88 55 1 1 2 -8 2 -19z
m943 -60 c-9 -9 -492 -313 -525 -331 -17 -9 -19 -8 -16 10 4 29 541 367 546
344 2 -8 0 -19 -5 -23z m-943 1 c0 -13 -23 -33 -67 -62 -38 -23 -78 -49 -90
-57 -21 -13 -23 -13 -23 6 0 15 25 36 88 76 48 31 88 56 90 56 1 0 2 -9 2 -19z
m0 -60 c0 -12 -27 -35 -86 -71 -82 -50 -102 -56 -91 -27 4 11 162 117 174 117
2 0 3 -8 3 -19z m0 -59 c0 -11 -30 -35 -82 -67 -100 -61 -98 -61 -98 -38 0 12
28 36 83 70 45 29 85 53 90 53 4 0 7 -8 7 -18z m0 -52 c0 -18 -74 -74 -158
-119 -21 -11 -23 -11 -20 8 2 13 34 40 88 75 47 30 86 55 88 55 1 1 2 -8 2
-19z m0 -59 c0 -13 -23 -33 -67 -62 -38 -23 -79 -49 -91 -57 -23 -15 -24 -14
-20 8 2 17 26 38 88 76 47 30 86 54 88 54 1 0 2 -9 2 -19z m0 -60 c0 -12 -27
-35 -86 -71 -83 -51 -102 -56 -91 -26 4 11 161 116 174 116 2 0 3 -8 3 -19z
m380 -26 l0 -45 -177 2 -178 3 -3 43 -3 42 180 0 181 0 0 -45z m945 0 l0 -40
-180 0 -180 0 -3 28 c-7 58 -8 58 185 55 l178 -3 0 -40z"/>
<path d="M527 1342 c-14 -15 -17 -41 -17 -140 l0 -122 151 0 151 0 -4 126 c-4
158 0 154 -153 154 -96 0 -114 -3 -128 -18z m241 -8 c20 -14 22 -23 22 -125
l0 -109 -130 0 -130 0 0 115 c0 98 2 115 18 124 29 17 194 14 220 -5z"/>
<path d="M604 1287 c-3 -8 -4 -43 -2 -78 l3 -64 44 0 c27 0 46 5 49 13 2 8 -8
12 -33 12 l-36 0 3 48 c3 45 4 47 36 50 47 5 35 26 -16 30 -29 2 -44 -1 -48
-11z"/>
<path d="M505 1030 c-4 -6 13 -10 44 -10 28 0 51 5 51 10 0 6 -20 10 -44 10
-25 0 -48 -4 -51 -10z"/>
<path d="M670 1030 c0 -6 30 -10 70 -10 40 0 70 4 70 10 0 6 -30 10 -70 10
-40 0 -70 -4 -70 -10z"/>
<path d="M1477 1342 c-14 -15 -17 -41 -17 -140 l0 -122 145 0 145 0 0 123 c0
160 3 157 -147 157 -94 0 -112 -3 -126 -18z m243 -12 c17 -17 20 -33 20 -125
l0 -105 -135 0 -135 0 0 105 c0 140 4 145 135 145 82 0 98 -3 115 -20z"/>
<path d="M1560 1215 l0 -75 45 0 c55 0 65 27 13 32 -18 2 -33 8 -33 13 0 6 15
11 33 13 19 2 32 9 32 17 0 8 -13 15 -32 17 -43 4 -46 33 -4 33 16 1 31 6 34
13 2 8 -11 12 -42 12 l-46 0 0 -75z"/>
<path d="M1460 1030 c0 -5 23 -10 51 -10 31 0 48 4 44 10 -3 6 -26 10 -51 10
-24 0 -44 -4 -44 -10z"/>
<path d="M1620 1030 c0 -6 30 -10 70 -10 40 0 70 4 70 10 0 6 -30 10 -70 10
-40 0 -70 -4 -70 -10z"/>
<path d="M1967 953 c-4 -6 -68 -49 -142 -95 -78 -48 -128 -84 -118 -86 8 -2
18 0 22 5 3 5 60 42 126 82 66 41 122 76 124 77 1 2 1 8 -1 15 -3 9 -6 10 -11
2z"/>
<path d="M1876 834 c-55 -35 -92 -64 -83 -64 8 0 43 18 76 40 33 22 71 45 85
52 15 6 26 17 26 25 0 7 -1 13 -2 12 -2 0 -48 -30 -102 -65z"/>
<path d="M1920 804 c-42 -26 -50 -34 -32 -34 13 0 32 9 44 20 12 11 28 20 35
20 7 0 13 7 13 15 0 8 -1 15 -2 14 -2 0 -28 -16 -58 -35z"/>
</g>
</svg>
