<?xml version="1.0" standalone="no"?>
<!DOCTYPE svg PUBLIC "-//W3C//DTD SVG 20010904//EN"
 "http://www.w3.org/TR/2001/REC-SVG-20010904/DTD/svg10.dtd">
<svg version="1.0" xmlns="http://www.w3.org/2000/svg"
 width="1120.000000pt" height="482.000000pt" viewBox="0 0 1120.000000 482.000000"
 preserveAspectRatio="xMidYMid meet">

<g transform="translate(0.000000,482.000000) scale(0.100000,-0.100000)"
fill="#000000" stroke="none">
<path d="M3172 2060 c-40 -11 -95 -32 -123 -46 -66 -36 -144 -121 -177 -191
-24 -52 -27 -69 -27 -173 0 -109 2 -119 32 -182 71 -150 222 -238 410 -238
144 0 253 41 341 127 113 112 147 288 88 452 -46 125 -170 224 -325 257 -87
18 -131 17 -219 -6z m203 -280 c43 -26 65 -75 65 -140 0 -93 -57 -150 -152
-150 -139 0 -202 180 -96 276 30 28 43 32 102 33 32 1 59 -6 81 -19z"/>
<path d="M7803 2065 c-175 -49 -277 -174 -259 -319 12 -101 81 -163 216 -191
105 -23 120 -30 120 -59 0 -32 -26 -46 -82 -46 -44 0 -137 37 -171 67 -9 9
-19 14 -22 11 -3 -2 -25 -54 -49 -116 l-43 -111 46 -19 c141 -60 337 -68 447
-18 71 32 136 93 160 151 10 24 17 67 17 106 0 127 -70 200 -228 237 -88 21
-115 34 -115 57 0 44 93 49 178 10 30 -14 59 -22 62 -18 4 5 23 50 43 101 l35
92 -21 15 c-69 49 -246 75 -334 50z"/>
<path d="M9233 2061 c-93 -26 -145 -53 -204 -108 -94 -87 -134 -193 -127 -327
7 -110 36 -182 103 -254 90 -98 200 -142 350 -142 133 0 236 37 323 115 154
139 173 398 41 565 -106 134 -312 198 -486 151z m204 -281 c43 -26 67 -74 67
-135 0 -97 -56 -155 -150 -155 -62 0 -111 29 -136 80 -37 72 -14 164 51 207
44 30 122 31 168 3z"/>
<path d="M470 1650 l0 -410 139 0 c112 0 140 3 144 14 3 8 6 72 5 143 l-1 128
89 0 89 0 3 -142 3 -143 144 0 145 0 0 410 0 410 -145 0 -144 0 -3 -137 c-3
-135 -3 -137 -25 -136 -13 0 -54 1 -91 2 l-68 1 3 135 3 135 -145 0 -145 0 0
-410z"/>
<path d="M1360 1650 l0 -410 280 0 280 0 0 110 0 110 -130 0 -130 0 0 45 0 45
115 0 115 0 0 105 0 105 -115 0 -115 0 0 40 0 40 125 0 125 0 0 110 0 110
-275 0 -275 0 0 -410z"/>
<path d="M2040 1651 l0 -411 145 0 144 0 3 133 3 132 68 -132 67 -133 171 0
c133 0 169 3 163 13 -34 57 -185 275 -198 286 -19 16 -21 31 -3 31 7 0 32 12
55 27 59 38 82 90 82 181 0 123 -44 196 -149 246 l-66 31 -242 3 -243 3 0
-410z m367 178 c34 -13 43 -25 43 -66 0 -40 -30 -63 -82 -63 l-38 0 0 70 c0
68 1 70 24 70 14 0 37 -5 53 -11z"/>
<path d="M3850 1650 l0 -410 140 0 140 0 0 178 c0 97 -4 194 -9 215 -5 20 -6
37 -2 37 3 0 65 -97 136 -215 l130 -215 143 0 142 0 0 410 0 410 -141 0 -141
0 5 -202 c2 -112 8 -214 11 -228 7 -24 7 -25 -9 -5 -9 11 -71 113 -137 228
l-122 207 -143 0 -143 0 0 -410z"/>
<path d="M5260 1650 l0 -410 140 0 139 0 3 123 3 122 120 6 c165 7 222 35 272
132 22 44 27 65 27 138 1 76 -2 92 -29 145 -22 43 -43 68 -79 91 -83 56 -124
63 -373 63 l-223 0 0 -410z m377 179 c15 -5 31 -16 35 -22 12 -19 9 -61 -5
-81 -13 -18 -90 -37 -115 -28 -13 4 -17 123 -5 135 10 10 58 8 90 -4z"/>
<path d="M6050 1650 l0 -410 145 0 144 0 3 133 3 132 68 -132 67 -133 171 0
c133 0 169 3 163 13 -34 57 -185 275 -198 286 -23 19 -20 25 18 39 46 17 103
82 112 127 3 20 4 68 2 106 -7 91 -43 151 -117 196 -76 46 -126 53 -366 53
l-215 0 0 -410z m373 179 c29 -16 37 -28 37 -61 0 -41 -32 -68 -80 -68 l-40 0
0 70 0 70 31 0 c17 0 40 -5 52 -11z"/>
<path d="M6870 1650 l0 -410 280 0 281 0 -3 111 -3 111 -125 1 -125 2 0 40 0
40 113 3 112 3 0 104 0 105 -115 0 -115 0 0 40 0 40 125 0 125 0 0 110 0 110
-275 0 -275 0 0 -410z"/>
<path d="M8220 1930 l0 -130 85 0 85 0 0 -280 0 -281 145 3 146 3 2 275 2 275
83 3 82 3 0 129 0 130 -315 0 -315 0 0 -130z"/>
<path d="M9910 1650 l0 -410 140 0 c105 0 140 3 141 13 3 44 -3 340 -8 377 -3
25 -2 42 2 38 3 -3 64 -100 133 -215 l127 -208 143 -3 142 -3 0 411 0 410
-140 0 -140 0 0 -157 c0 -87 5 -187 10 -222 6 -35 9 -65 7 -68 -3 -2 -64 98
-137 222 l-132 225 -144 0 -144 0 0 -410z"/>
</g>
</svg>
