<?xml version="1.0" standalone="no"?>
<!DOCTYPE svg PUBLIC "-//W3C//DTD SVG 20010904//EN"
 "http://www.w3.org/TR/2001/REC-SVG-20010904/DTD/svg10.dtd">
<svg version="1.0" xmlns="http://www.w3.org/2000/svg"
 width="1200.000000pt" height="1200.000000pt" viewBox="0 0 1200.000000 1200.000000"
 preserveAspectRatio="xMidYMid meet">

<g transform="translate(0.000000,1200.000000) scale(0.100000,-0.100000)"
fill="#000000" stroke="none">
<path d="M4575 8850 c-609 -65 -1075 -446 -1170 -955 -35 -187 -15 -432 51
-617 133 -372 432 -622 854 -714 132 -29 457 -27 600 4 606 132 1000 547 1027
1082 13 256 -59 517 -198 722 -159 234 -445 409 -755 463 -109 19 -306 26
-409 15z m355 -275 c274 -58 491 -223 599 -456 142 -305 122 -665 -51 -916
-116 -170 -333 -307 -587 -371 -95 -24 -124 -27 -281 -27 -151 1 -187 4 -260
24 -391 106 -626 408 -647 831 -14 282 80 505 289 686 112 96 247 163 422 210
170 45 360 52 516 19z"/>
<path d="M7063 8772 c-4 -9 4 -22 20 -34 17 -12 27 -29 27 -44 0 -15 -53 -102
-133 -222 -74 -108 -346 -516 -606 -905 -260 -390 -488 -726 -508 -748 -30
-33 -42 -39 -74 -39 -32 0 -39 -3 -39 -20 0 -11 4 -20 8 -20 9 0 385 -67 420
-75 17 -4 22 -1 22 14 0 11 -9 25 -20 31 -12 6 -20 21 -20 35 0 35 297 495
319 495 34 0 1154 -209 1161 -217 8 -9 108 -425 124 -515 11 -63 2 -84 -37
-90 -12 -2 -23 -10 -25 -18 -2 -12 44 -24 240 -59 134 -24 249 -46 256 -49 7
-2 12 4 12 16 0 14 -12 27 -36 38 -20 9 -39 27 -44 39 -7 19 -541 2090 -564
2189 -8 35 16 66 51 66 19 0 24 5 21 22 -3 20 -17 24 -183 55 -99 18 -226 41
-283 52 -92 16 -104 17 -109 3z m375 -877 c77 -313 139 -571 138 -572 -2 -3
-921 164 -938 170 -4 1 139 224 319 495 179 271 329 489 333 485 4 -4 71 -264
148 -578z"/>
<path d="M2402 8228 c-178 -106 -202 -123 -189 -135 12 -12 19 -13 36 -3 12 6
34 10 49 8 24 -3 69 -76 459 -742 238 -407 431 -741 430 -743 -3 -3 -1911 658
-2040 707 -74 28 -86 48 -51 89 17 20 23 35 17 45 -6 11 -65 -19 -273 -141
-146 -86 -266 -156 -268 -158 -1 -1 0 -10 4 -19 4 -11 12 -15 23 -10 71 30 70
30 95 4 18 -19 994 -1678 1045 -1777 19 -38 13 -61 -24 -86 -29 -20 -33 -26
-22 -40 11 -14 35 -2 207 99 107 64 199 119 205 125 19 19 -9 28 -53 16 -35
-9 -45 -9 -57 4 -18 18 -916 1552 -911 1556 4 4 2155 -737 2198 -757 42 -20
46 -49 12 -77 -25 -20 -27 -24 -14 -37 13 -12 42 2 225 109 116 68 218 129
228 135 14 9 16 14 7 25 -9 11 -17 11 -46 -1 -20 -8 -44 -12 -54 -9 -17 5
-1066 1783 -1077 1825 -3 11 8 28 32 47 24 21 34 35 29 46 -3 10 -9 17 -13 16
-3 -1 -97 -55 -209 -121z"/>
<path d="M9300 8255 c0 -8 11 -22 25 -31 13 -9 27 -24 30 -35 7 -20 -892
-1870 -925 -1903 -16 -17 -24 -18 -54 -9 -35 11 -46 8 -46 -11 0 -6 99 -61
220 -121 182 -91 222 -107 230 -95 7 11 0 23 -26 46 -26 25 -32 36 -27 52 17
45 418 861 424 862 3 0 314 -151 690 -335 376 -184 689 -336 694 -338 13 -5
-415 -878 -433 -885 -8 -2 -29 0 -48 6 -29 9 -36 8 -43 -7 -8 -14 22 -32 216
-126 174 -84 226 -106 233 -95 5 9 -3 24 -26 46 -34 32 -35 33 -21 66 46 108
903 1846 918 1862 16 17 23 18 56 8 35 -11 52 -5 53 19 0 9 -442 219 -451 213
-17 -10 -9 -31 15 -42 13 -6 27 -20 31 -31 4 -14 -49 -133 -180 -403 -103
-211 -188 -385 -190 -386 -4 -4 -1376 665 -1387 676 -7 7 346 737 371 766 16
19 44 21 73 5 19 -10 37 0 38 22 0 7 -432 219 -447 219 -7 0 -13 -7 -13 -15z"/>
<path d="M5570 5965 c0 -3 20 -41 45 -83 97 -165 128 -352 142 -849 5 -206 4
-243 -8 -243 -8 0 -115 5 -239 10 -477 22 -742 70 -884 160 l-61 39 -3 -220
c-1 -121 -1 -317 0 -434 l3 -214 71 44 c172 105 362 137 897 152 l227 6 0
-144 c0 -79 -5 -220 -10 -314 -23 -385 -53 -526 -146 -671 -19 -29 -34 -56
-34 -59 0 -3 191 -5 425 -5 234 0 425 3 425 6 0 3 -18 36 -40 73 -48 80 -81
201 -110 399 -22 159 -40 413 -40 591 l0 124 233 -6 c529 -15 712 -44 887
-145 l85 -49 3 219 c1 121 1 316 0 433 l-3 215 -62 -40 c-143 -90 -412 -138
-888 -160 -121 -5 -229 -10 -239 -10 -19 0 -19 8 -13 218 14 451 66 748 157
897 l40 65 -430 0 c-237 0 -430 -2 -430 -5z"/>
</g>
</svg>
