<?xml version="1.0" standalone="no"?>
<!DOCTYPE svg PUBLIC "-//W3C//DTD SVG 20010904//EN"
 "http://www.w3.org/TR/2001/REC-SVG-20010904/DTD/svg10.dtd">
<svg version="1.0" xmlns="http://www.w3.org/2000/svg"
 width="1200.000000pt" height="628.000000pt" viewBox="0 0 1200.000000 628.000000"
 preserveAspectRatio="xMidYMid meet">

<g transform="translate(0.000000,628.000000) scale(0.100000,-0.100000)"
fill="#000000" stroke="none">
<path d="M7255 4124 c-149 -24 -270 -93 -341 -198 -93 -138 -109 -378 -34
-532 42 -86 155 -191 380 -350 289 -206 315 -236 315 -374 0 -103 -19 -149
-78 -188 -34 -23 -53 -27 -126 -30 -77 -3 -90 -1 -120 20 -19 13 -43 37 -52
53 -24 40 -39 139 -39 253 l0 93 -172 -3 -173 -3 1 -135 c1 -200 37 -315 130
-419 94 -104 269 -159 469 -147 259 15 413 118 486 327 31 87 33 302 5 394
-49 160 -116 231 -411 433 -271 185 -331 253 -323 364 5 65 25 99 78 136 27
18 47 22 104 22 139 0 195 -65 204 -235 l5 -95 163 0 164 0 0 88 c-1 267 -116
439 -340 506 -54 17 -237 29 -295 20z"/>
<path d="M0 3145 l0 -935 170 0 170 0 0 385 0 386 97 -3 98 -3 136 -380 137
-380 171 -3 c94 -1 171 1 171 6 0 5 -61 176 -135 381 -74 204 -135 376 -135
381 0 6 8 10 18 10 31 0 136 57 169 91 18 19 45 61 60 94 28 60 28 61 31 303
3 152 0 268 -8 310 -15 89 -54 165 -112 217 -84 75 -83 75 -590 75 l-448 0 0
-935z m801 576 l29 -29 0 -161 c0 -155 -1 -161 -24 -188 l-24 -28 -221 -3
-221 -3 0 220 0 221 216 0 216 0 29 -29z"/>
<path d="M1490 3145 l0 -935 485 0 485 0 0 155 0 155 -315 0 -315 0 0 260 0
260 290 0 291 0 -3 148 -3 147 -287 3 -288 2 0 215 0 215 310 0 310 0 0 155 0
155 -480 0 -480 0 0 -935z"/>
<path d="M2730 3145 l0 -935 170 0 170 0 0 385 0 385 249 0 c220 0 256 2 313
20 110 34 186 119 214 239 17 70 19 471 3 557 -16 86 -53 157 -110 208 -85 76
-84 76 -576 76 l-433 0 0 -935z m771 576 l29 -29 0 -161 c0 -155 -1 -161 -24
-188 l-24 -28 -206 -3 -206 -3 0 220 0 221 201 0 201 0 29 -29z"/>
<path d="M4110 3145 l0 -935 170 0 170 0 0 385 0 386 97 -3 96 -3 137 -380
136 -380 172 -3 c95 -1 172 1 172 4 0 4 -61 174 -135 378 -74 204 -135 376
-135 381 0 6 19 16 43 22 94 26 188 117 218 211 17 53 24 480 10 571 -20 130
-85 225 -186 273 l-60 28 -452 0 -453 0 0 -935z m801 575 l30 -30 -3 -165 c-4
-226 17 -209 -268 -213 l-220 -3 0 220 0 221 216 0 216 0 29 -30z"/>
<path d="M5600 3145 l0 -935 485 0 485 0 0 155 0 155 -315 0 -315 0 0 260 0
260 287 2 286 3 -1 145 -1 145 -286 3 -285 2 0 215 0 215 310 0 310 0 0 155 0
155 -480 0 -480 0 0 -935z"/>
<path d="M8210 3145 l0 -935 485 0 485 0 0 155 0 155 -312 2 -313 3 -3 258 -2
257 290 0 291 0 -3 148 -3 147 -287 3 -288 2 0 215 0 215 310 0 310 0 0 155 0
155 -480 0 -480 0 0 -935z"/>
<path d="M9450 3145 l0 -935 164 0 164 0 -5 653 -4 652 156 -415 c86 -228 196
-521 244 -650 l88 -235 182 -3 181 -2 0 935 0 935 -166 0 -167 0 5 -652 c3
-560 2 -647 -10 -618 -7 18 -107 286 -222 594 -114 309 -218 587 -230 619
l-21 57 -180 0 -179 0 0 -935z"/>
<path d="M10850 3930 l0 -150 198 -2 197 -3 3 -782 2 -783 175 0 175 0 0 785
0 785 200 0 200 0 0 150 0 150 -575 0 -575 0 0 -150z"/>
</g>
</svg>
