<?xml version="1.0" encoding="utf-8"?>
<!-- Generator: Adobe Illustrator 22.0.1, SVG Export Plug-In . SVG Version: 6.00 Build 0)  -->
<svg version="1.1" id="Layer_2_1_" xmlns="http://www.w3.org/2000/svg" xmlns:xlink="http://www.w3.org/1999/xlink" x="0px" y="0px"
	 viewBox="0 0 820.8 89.6" style="enable-background:new 0 0 820.8 89.6;" xml:space="preserve">
<g>
	<path d="M326.8,86.6c-4.4-0.6-14-7.1-21.7-13.5c-0.5-0.4-1.7-0.7-3-0.4c-1.3,0.3-7.1,1.6-15,3c-6.2,1.1-11.8,2-14.8,2.3
		c0.2-0.3,0.4-0.5,0.6-0.8c5.5-2.2,18.1-7.3,19.3-7.8c1.4-0.5,9.9-4.3,11.3-5c1-0.5-1.2-1.5-2.1-0.8c-6.6,4.6-19.1,9.6-28.4,13.4
		c11.7-16.9,22.3-33.2,22.5-34.4c0-0.3-0.2-1.2-1.8-1.1c-1.6,0.1-4.6,0.2-6.1,0.3c-1.5,0-2.7-0.5-3.1-0.9c0.6,3.1-8.2,19-18.8,36
		c-6.3,3.2-13.4,5.8-27.9,7.4c-7.2,0.8-13.4-0.7-16.1-5.3c-2.6-4.4-0.4-11,6.6-14.3c2.9-1.4,5.6-2,8.1-2.3c3.7,0.3,7.2,1.8,9.9,3.5
		c1.7,1,2.9-0.4,1.3-1c-5.3-2.1-13.3-4-21.6-1c-2.3,0.8-4.6,1.8-6.7,2.8c0,0,0,0-0.1,0c-2.4,1-20.3,10.5-27.5,14.1
		c-2.6,1.3-4,1.8-6.8,0.4c-4.4-2.2-12.4-11.6-16.1-13.7c-1.9-1.1-2-1.2-2.3-2.2c-11.8,6.3-21.1,11.8-31.5,16.7
		c-3.5,1.6-6.7,1.5-10.2-1.5c-3.5-3.1-10.8-11.8-11.3-12.6c-0.5-0.8-1.5-1.5-3.3-1.3c-3.6,0.4-15.3,1.8-24.8,3
		c14.9-3.4,37.4-9.3,60.5-18.3c35.2-13.7,52.8-28.3,52.8-37.8c0-6-5.8-11.2-31.3-11.2c-21.4,0-44.9,1.6-71.6,7.1
		C50,18.9,0,39.5,0,53.2c0,7.4,18.3,13,40.3,14.6c3.2,0.2,5.4,0.4,7.3,0.5c7.9,0.9,3.5,12.9,1.5,16.8c-0.7,1.5-1.5,2.1-2.5,2.6
		c0,0.8,1.3,1.3,2.1,1.3c0.9,0,0.9,0,2.9-5.2c0.8-2,5.7-12.6,9.4-17.6c6-8.2,8.3-11.1,10.7-13.1c-0.3-0.4-1.2-1-3.6,0.7
		c-6.2,4.4-17,14.5-24.3,14.1c-0.8,0-1.6-0.1-2.6-0.2C24.3,66.5,7.3,61.1,7.3,52.4c0-13.3,52.2-35.2,89.1-42.9
		c29.8-6.2,53.1-7,69.7-7c26.4,0,32.2,5.3,32.2,11c0,8.3-14.3,22.5-52.6,37.6c-34.9,13.7-73.3,19.1-77.3,20.2
		c-4,1.1-7.1,3.6,2.2,1.6c1.6-0.4,4-0.8,6.9-1.5c5.3-0.9,9.7-2,19.4-2.6c1.7-0.1,4.6,0.6,6.6,2.3c4.6,4,9.9,12,14.3,15
		c1.8,1.3,7,2.2,8.9,1.3c3.5-1.6,27.5-15.2,31.9-17.6c-0.4,0.8-0.3,0.9,2.7,3.1c6,4.4,12.3,12.2,15.9,13.6c2.4,1,4.1,1,5.4,0.2
		c3-1.8,20.9-12.4,29.3-15.9c0,0,1-0.4,2.5-1c-2.6,2.1-4.2,4.6-4.2,7.7c0,5.2,4.9,8,11.4,8.8c6.5,0.8,18.5-0.8,30.8-4.2
		c5.6-1.5,9.8-2.9,12.8-4c-1.7,2.8-3.5,5.5-5.3,8.3c-0.6,0.9-0.6,1.2,0.1,1.3c1.9,0.3,4.7-0.3,5.2,0.7c2.2-3.1,4.5-6.3,6.7-9.6
		c5.1-0.9,16.4-3.1,20-3.6c3.7-0.6,4.8-0.5,6.1,0.3c2.1,1.3,8.6,7.5,10.8,9.3c2,1.6,2.2,2.1,13.3,2.1c6.1,0,16.2-1,17.2-1.2
		c1-0.3-0.8-0.3-0.9-0.5C335.9,85.8,333.6,86.1,326.8,86.6"/>
	<path d="M556.1,16.5c0-18.6-23.9-26.4-87.3,3.4c-15.1,7.1-58,31.6-58,51.7c0,10.1,8,18,30.4,18c33.5,0,67.4-21.3,75.7-26.5
		C543.2,46.5,556.1,30.3,556.1,16.5 M517.2,62.3C504,70.5,471.9,85.9,447,85.9c-17.5,0-25.7-7.5-25.7-16.4c0-19.1,24-38.3,48.1-49.6
		c65.4-30.5,86.1-20,86.1-3.2C555.6,30.6,542,47.1,517.2,62.3"/>
	<path d="M620.7,68.2c-4.9,1.8-19,12.2-21.7,13.6c-0.6,0.3-1.1,0.5-1.9,0c-1.5-1.1-10.2-10.2-12.5-11.8c-2-1.3-5.8-0.8-7.2-0.5
		c-3.8,1-20.4,9.9-24.4,11.8c-1.2,0.5-1.6-0.1-1.5-0.9c0.2-1.5,2.3-12.5,2.5-13c0.2-0.5,1.2-2-3.3-2c-4.5,0-20.9,3.1-23.3,3.7
		c-1.5,0.4-1.1,1.2,0.7,0.6c2.7-0.9,11.2-2.7,13.2-2.9c1.6-0.2,2.2,0.3,2.2,2.4c0,0.8-2.2,12.7-2,14.3c0.2,1.6,1.1,1.8,3,1.8
		c6.8-3,21.7-10.7,24.6-12c2.3-1.1,5.2-1.5,7.2,0.4c3.5,3.1,11,10.9,13.1,11.9c1.3,0.6,2.2,0.6,3.9-0.1c2.1-0.8,20.6-13.5,26.9-15.8
		C621.6,69.2,621.5,68.1,620.7,68.2"/>
	<path d="M730.2,72.7c-1.9,0.8-4.6,1.9-7.7,3.3C725.3,74.8,727.9,73.7,730.2,72.7"/>
	<path d="M701.3,84.2c0-2.8,1.5-14.1,2.8-18c-0.1-0.8-0.9-1.7-2.8-1.4c-6.6,0.9-27.5,12.1-40,18.9c-0.4,0.2-2,0.4-3.5,0.2
		c-20.5-2.6-20.5-8.9-20.5-11.6c0-6.7,8-9.4,13.4-9.4c6,0,10.2,4,10.4,6.6c-2.2,0.5-10.8,2.7-12.9,2.9c-1,0.1-1.2,1.2,0.1,0.9
		c2.1-0.5,10.5-3.5,14.5-3.9c1.4-0.1,1.4-0.8,1.2-1.3c-2.5-6.2-12.7-5.9-20.5-4.5c-4.2,0.8-9.9,2.5-13.6,3.1c0,0.2,0.5,0.7,1.6,0.4
		c4-1.1,6.8-2.2,13.4-3.6c-3.1,0.7-14.4,5.3-14.4,11.6c0,8.6,11.7,12.1,22.3,12.1c1,0,4.7-0.8,6.7-2c12.8-7.3,21.2-12.4,33.8-17.8
		c0.6-0.3,0.9-0.2,1,0.4c0.1,1.8-3,16.1-3,17.4c0,2.1,6.4,1.1,8.1,1.6c5.9-3.1,15.6-7.6,23.1-10.9c-5.9,2.6-12.7,5.6-19.3,8.6
		C702,85.2,701.3,85.4,701.3,84.2"/>
	<path d="M809.6,63.4c0-1.6,1.2-1.6,2.1-2c0.1-0.3,0.1-0.5-0.2-0.4c-1.6,0.7-3.4,2.1-5,3.5c-3.2,0.8-33.4,15.3-36.3,16.6
		c-0.9,0.4-5.1,2-8.3,0.5c-7.3-3.4-11.3-8.7-13.8-10.9c-2.3-2-3.8-2.8-9.1-1.8c-1.5,0.6-4.7,1.9-8.8,3.7c1.5-0.6,2.5-1,2.8-1
		c-0.1,0.3,1.7-0.6,3.6,0.8c4.8,3.3,12.3,10.2,18.1,12.6c2.6,1,5.6,0.8,7.6,0.3c2.2-0.5,22.5-11.6,36.6-17.1
		c2.1-0.8,3.8-0.2,4.3,0.3c5.4,5.1,8.6,9.3,12.5,11.8c0.1,6.5-8.7,7.9-10.8,7.9c-4.6,0-12.5-2.3-13.5-4.5c-0.3,0.3-1.4,0.7-0.9,1.7
		c0.7,1.2,6.5,2.9,14.6,2.9c8.3,0,15.8-4.6,15.8-9.6C820.8,74.8,809.6,66.8,809.6,63.4"/>
</g>
</svg>
