<?xml version="1.0" standalone="no"?>
<!DOCTYPE svg PUBLIC "-//W3C//DTD SVG 20010904//EN"
 "http://www.w3.org/TR/2001/REC-SVG-20010904/DTD/svg10.dtd">
<svg version="1.0" xmlns="http://www.w3.org/2000/svg"
 width="730.000000pt" height="250.000000pt" viewBox="0 0 730.000000 250.000000"
 preserveAspectRatio="xMidYMid meet">

<g transform="translate(0.000000,250.000000) scale(0.100000,-0.100000)"
fill="#000000" stroke="none">
<path d="M0 1250 l0 -1250 3650 0 3650 0 0 1250 0 1250 -3650 0 -3650 0 0
-1250z m7150 0 l0 -1010 -3500 0 -3500 0 0 1010 0 1010 3500 0 3500 0 0 -1010z"/>
<path d="M230 1250 l0 -930 3420 0 3420 0 0 930 0 930 -3420 0 -3420 0 0 -930z
m2455 540 c25 -33 50 -60 54 -60 4 0 29 27 56 59 27 33 51 58 53 57 1 -2 -8
-37 -21 -79 -14 -42 -23 -78 -21 -80 3 -2 27 -2 54 1 28 2 50 2 50 -1 0 -3
-20 -20 -45 -38 l-45 -33 30 -31 c16 -17 30 -34 30 -39 0 -7 -37 -2 -81 10
-11 3 -19 -6 -26 -31 l-11 -35 59 0 59 0 0 -85 0 -85 55 0 55 0 0 85 0 85 95
0 95 0 -2 -257 -3 -258 -92 -3 -92 -3 -3 93 -3 93 -52 3 -53 3 0 -95 0 -96
-95 0 -95 0 0 259 c0 186 3 260 11 263 9 3 9 13 0 41 l-12 37 -40 -20 c-42
-22 -49 -18 -22 12 23 26 10 32 -26 13 -38 -19 -39 -25 -1 -50 16 -11 30 -22
30 -25 -1 -3 -11 -18 -24 -33 -22 -27 -25 -28 -63 -18 -49 13 -88 43 -109 82
-14 28 -13 32 6 59 l21 30 36 -24 36 -25 36 25 c19 13 42 24 50 24 9 0 -3 19
-29 46 l-45 46 58 -4 c66 -5 65 -5 42 82 -8 30 -15 56 -15 58 0 10 15 -6 55
-58z m-324 -216 c29 -5 38 -12 48 -40 18 -49 75 -92 143 -106 54 -11 59 -14
79 -57 87 -186 -7 -419 -199 -491 -81 -31 -203 -25 -284 14 -139 67 -217 218
-196 378 25 193 216 334 409 302z m4254 -95 c30 -11 55 -22 55 -24 0 -2 -13
-33 -29 -69 l-30 -65 -46 20 c-52 23 -88 22 -93 -3 -3 -13 13 -22 69 -38 85
-26 124 -60 134 -119 15 -90 -48 -188 -138 -212 -60 -16 -172 -6 -234 21 -29
12 -53 24 -53 26 0 4 52 138 56 142 1 2 25 -8 53 -22 53 -28 86 -32 111 -16
13 9 12 13 -9 30 -13 11 -33 20 -44 20 -38 0 -107 41 -123 73 -24 46 -15 136
19 180 58 76 185 100 302 56z m-5617 -71 l-3 -83 -52 -3 -53 -3 0 -175 0 -174
-95 0 -95 0 0 175 0 175 -50 0 -50 0 0 85 0 85 200 0 201 0 -3 -82z m232 -3
l0 -85 55 0 55 0 0 85 0 85 95 0 95 0 0 -260 0 -260 -95 0 -94 0 -3 93 -3 92
-52 3 -53 3 0 -95 0 -96 -95 0 -95 0 0 260 0 260 95 0 95 0 0 -85z m700 15 l0
-70 -86 0 c-83 0 -85 -1 -82 -22 3 -21 9 -23 76 -26 l72 -3 0 -64 0 -65 -75 0
c-73 0 -75 -1 -75 -25 0 -24 2 -24 83 -27 l82 -3 3 -72 3 -73 -176 0 -175 0 0
260 0 260 175 0 175 0 0 -70z m1490 -97 c0 -141 3 -169 17 -185 21 -23 38 -23
63 2 18 18 20 33 20 185 l0 165 96 0 96 0 -4 -187 c-5 -212 -12 -240 -73 -290
-20 -17 -57 -37 -81 -43 -55 -16 -168 -9 -210 13 -45 23 -93 77 -104 116 -5
20 -10 116 -10 214 l0 177 95 0 95 0 0 -167z m600 40 l75 -128 3 128 3 127 89
0 90 0 0 -260 0 -260 -94 0 -94 0 -76 128 -76 127 0 -127 0 -128 -90 0 -90 0
0 260 0 260 93 0 92 0 75 -127z m653 106 c51 -17 113 -72 139 -123 32 -62 31
-165 -3 -231 -28 -56 -90 -108 -147 -125 -20 -6 -101 -14 -179 -17 l-143 -6 0
263 0 262 148 -5 c81 -2 164 -10 185 -18z m532 2 c69 -32 89 -62 93 -141 4
-59 1 -73 -18 -99 -12 -17 -33 -34 -46 -37 -31 -8 -30 -11 46 -123 33 -50 60
-93 60 -96 0 -3 -47 -5 -105 -5 l-105 0 -42 83 -43 82 -3 -82 -3 -83 -89 0
-90 0 0 260 0 260 153 0 c126 0 159 -4 192 -19z m505 -51 l0 -69 -82 -3 c-75
-3 -83 -5 -83 -23 0 -18 8 -20 72 -23 l71 -3 4 -64 3 -64 -75 -3 c-69 -3 -75
-5 -78 -25 -3 -22 -1 -23 82 -23 l86 0 0 -75 0 -75 -175 0 -175 0 0 260 0 260
175 0 175 0 0 -70z m381 48 c121 -53 182 -183 145 -309 -20 -71 -64 -121 -131
-154 -50 -25 -68 -28 -205 -33 l-150 -5 0 263 0 262 153 -4 c108 -3 162 -9
188 -20z m688 -404 c12 -15 21 -35 21 -46 0 -25 -44 -68 -70 -68 -26 0 -70 43
-70 68 0 33 38 72 70 72 19 0 36 -9 49 -26z"/>
<path d="M4530 1229 l0 -101 32 7 c48 11 67 26 79 62 21 65 -25 133 -91 133
-19 0 -20 -6 -20 -101z"/>
<path d="M5047 1353 c-4 -3 -7 -26 -7 -50 0 -39 2 -43 24 -43 44 0 56 10 56
46 0 28 -5 36 -26 44 -30 12 -38 12 -47 3z"/>
<path d="M5940 1230 c0 -55 3 -100 8 -100 27 0 83 24 91 39 40 74 -2 161 -79
161 -19 0 -20 -6 -20 -100z"/>
<path d="M6695 1055 c-31 -30 -31 -40 -1 -70 16 -16 31 -22 46 -18 16 4 18 8
8 14 -7 5 -21 6 -30 3 -15 -4 -18 1 -18 36 0 39 1 41 28 38 22 -2 27 -8 28
-31 1 -15 4 -31 8 -34 7 -7 26 15 26 30 0 12 -47 57 -60 57 -6 0 -22 -11 -35
-25z"/>
</g>
</svg>
