<?xml version="1.0" standalone="no"?>
<!DOCTYPE svg PUBLIC "-//W3C//DTD SVG 20010904//EN"
 "http://www.w3.org/TR/2001/REC-SVG-20010904/DTD/svg10.dtd">
<svg version="1.0" xmlns="http://www.w3.org/2000/svg"
 width="500.000000pt" height="500.000000pt" viewBox="0 0 500.000000 500.000000"
 preserveAspectRatio="xMidYMid meet">

<g transform="translate(0.000000,500.000000) scale(0.100000,-0.100000)"
fill="#000000" stroke="none">
<path d="M4475 3024 c-97 -50 -132 -161 -84 -262 58 -120 234 -138 322 -32 25
29 47 86 47 120 0 61 -53 146 -111 176 -37 19 -136 18 -174 -2z m176 -37 c48
-31 82 -101 74 -152 -14 -92 -87 -151 -178 -142 -89 8 -142 67 -142 157 0 66
18 99 75 138 46 31 124 31 171 -1z"/>
<path d="M4494 2955 c-4 -8 -4 -45 -2 -81 5 -75 20 -94 74 -94 53 0 76 38 72
119 -4 87 -22 85 -26 -4 -3 -75 -13 -95 -46 -95 -36 0 -46 20 -46 91 0 65 -13
98 -26 64z"/>
<path d="M4490 2750 c0 -6 32 -10 75 -10 43 0 75 4 75 10 0 6 -32 10 -75 10
-43 0 -75 -4 -75 -10z"/>
<path d="M2455 2739 c-79 -30 -125 -107 -125 -214 0 -152 78 -226 221 -213 59
6 96 30 126 84 33 56 30 64 -22 64 -32 0 -45 -4 -45 -14 0 -21 -58 -66 -85
-66 -13 0 -35 5 -48 11 -72 33 -86 191 -22 255 33 33 102 34 133 1 12 -13 22
-29 22 -35 0 -8 17 -12 45 -12 37 0 45 3 45 19 0 27 -41 82 -77 104 -39 22
-127 31 -168 16z"/>
<path d="M2888 2736 c-58 -21 -86 -43 -107 -84 -42 -83 -35 -213 16 -273 79
-93 237 -93 316 0 32 38 51 124 41 188 -14 95 -57 149 -139 172 -51 14 -81 13
-127 -3z m130 -82 c73 -48 67 -220 -9 -259 -87 -46 -169 18 -169 132 0 118 91
183 178 127z"/>
<path d="M240 2583 c0 -131 3 -164 18 -192 27 -55 63 -75 142 -79 57 -4 75 0
109 19 61 34 71 69 71 255 l0 155 -42 -3 -43 -3 -2 -145 c-3 -173 -5 -183 -38
-198 -40 -19 -74 -14 -100 13 -24 24 -25 28 -25 180 l0 155 -45 0 -45 0 0
-157z"/>
<path d="M670 2530 l0 -210 40 0 39 0 3 144 3 145 81 -142 81 -142 47 -3 46
-3 0 210 0 211 -40 0 -39 0 -3 -147 -3 -147 -85 147 -85 147 -42 0 -43 0 0
-210z"/>
<path d="M1100 2531 l0 -211 113 0 c141 0 170 12 210 90 55 107 29 258 -53
305 -28 16 -57 21 -152 24 l-118 3 0 -211z m235 107 c46 -53 40 -174 -10 -224
-20 -20 -34 -24 -85 -24 l-60 0 0 141 0 141 66 -4 c57 -3 70 -8 89 -30z"/>
<path d="M1527 2733 c-4 -3 -7 -98 -7 -210 l0 -203 160 0 160 0 0 35 0 35
-115 0 -115 0 0 55 0 55 100 0 100 0 0 35 0 35 -100 0 -100 0 0 45 0 45 110 0
110 0 0 40 0 40 -148 0 c-82 0 -152 -3 -155 -7z"/>
<path d="M1920 2530 l0 -210 40 0 40 0 0 80 0 80 69 0 c43 0 72 -5 79 -12 5
-7 13 -43 17 -80 l7 -68 50 0 c45 0 48 1 38 19 -5 11 -10 44 -10 74 0 41 -5
61 -22 82 -15 20 -18 30 -10 33 7 2 19 17 27 32 35 68 4 151 -62 169 -21 6
-89 11 -150 11 l-113 0 0 -210z m224 129 c28 -13 38 -41 26 -74 -11 -29 -28
-35 -106 -35 l-64 0 0 53 c0 30 3 57 7 60 11 11 110 8 137 -4z"/>
<path d="M3174 2723 c3 -10 34 -103 69 -208 l64 -190 44 -3 44 -3 68 198 c37
109 67 204 67 211 0 9 -13 12 -42 10 l-42 -3 -43 -149 c-23 -82 -45 -151 -47
-154 -7 -6 -8 -2 -55 163 l-39 140 -47 3 c-41 3 -46 1 -41 -15z"/>
<path d="M3600 2530 l0 -210 160 0 160 0 0 35 0 35 -120 0 -120 0 0 55 0 55
105 0 105 0 0 35 0 35 -105 0 -105 0 0 45 0 45 83 1 c151 2 142 -1 142 39 l0
35 -152 3 -153 3 0 -211z"/>
<path d="M3990 2530 l0 -210 43 0 42 0 0 77 0 78 66 3 c87 4 99 -7 99 -94 l0
-64 50 0 c47 0 50 1 40 19 -5 11 -10 47 -10 80 0 48 -4 64 -21 79 l-20 20 25
25 c21 21 26 36 26 75 0 97 -46 122 -227 122 l-113 0 0 -210z m246 115 c42
-57 -1 -98 -98 -93 l-63 3 -3 44 c-5 71 -2 74 79 69 55 -3 74 -8 85 -23z"/>
<path d="M3202 2216 c-36 -17 -55 -55 -46 -92 8 -32 35 -49 102 -64 30 -7 56
-19 59 -26 16 -42 -85 -64 -107 -24 -12 22 -60 28 -60 7 0 -24 30 -56 66 -67
80 -27 154 13 154 82 0 45 -19 60 -97 78 -61 14 -82 32 -63 55 19 22 77 19 92
-5 16 -26 58 -27 58 -2 0 50 -96 85 -158 58z"/>
<path d="M840 2110 c0 -98 -2 -110 -19 -120 -23 -12 -51 10 -51 41 0 14 -7 19
-25 19 -21 0 -25 -5 -25 -28 0 -40 25 -70 65 -78 40 -7 90 10 101 34 4 10 9
68 12 130 l5 112 -32 0 -31 0 0 -110z"/>
<path d="M950 2125 c0 -121 14 -158 65 -175 47 -16 101 -7 131 21 22 21 24 30
24 136 l0 113 -25 0 c-25 0 -25 0 -25 -96 0 -114 -8 -134 -55 -134 -47 0 -55
20 -55 134 l0 96 -30 0 -30 0 0 -95z"/>
<path d="M1230 2085 l0 -135 25 0 c24 0 24 1 27 96 l3 96 54 -96 c49 -86 58
-96 83 -96 l28 0 0 135 0 135 -25 0 c-24 0 -24 -2 -27 -92 l-3 -93 -53 93
c-48 83 -56 92 -83 92 l-29 0 0 -135z"/>
<path d="M1550 2195 c0 -23 4 -25 45 -25 l45 0 0 -110 0 -110 25 0 25 0 0 109
0 110 43 3 c35 2 43 7 45 26 3 22 2 22 -112 22 l-116 0 0 -25z"/>
<path d="M1810 2098 c-24 -68 -45 -129 -48 -135 -3 -9 6 -13 25 -13 23 0 31 6
40 30 10 26 16 30 51 30 42 0 72 -19 72 -46 0 -9 11 -14 30 -14 17 0 30 4 30
8 0 5 -16 54 -36 108 -60 166 -53 154 -88 154 -32 0 -32 -1 -76 -122z m104
-25 c7 -21 4 -23 -28 -23 -20 0 -36 1 -36 3 0 2 8 26 17 53 l17 49 12 -30 c6
-17 15 -40 18 -52z"/>
<path d="M2060 2085 l0 -135 25 0 c23 0 25 4 25 44 0 42 19 74 38 63 4 -3 24
-28 42 -56 30 -44 40 -51 68 -51 17 0 32 2 32 6 0 3 -24 38 -54 78 l-54 73 56
57 57 56 -35 0 c-29 0 -44 -10 -92 -57 l-58 -57 0 57 c0 54 -1 57 -25 57 l-25
0 0 -135z"/>
<path d="M2399 2193 c-6 -16 -28 -76 -50 -135 l-38 -108 28 0 c23 0 31 6 40
30 9 28 13 30 60 30 46 0 50 -2 60 -30 8 -24 16 -30 40 -30 l30 0 -45 126
c-24 70 -47 131 -50 135 -3 5 -19 9 -35 9 -23 0 -32 -6 -40 -27z m60 -87 c15
-59 16 -56 -23 -56 l-34 0 16 50 c9 28 19 50 23 50 4 0 12 -20 18 -44z"/>
<path d="M2610 2085 l0 -135 25 0 c24 0 25 3 25 60 l0 60 55 0 55 0 0 -60 0
-60 30 0 30 0 0 135 0 135 -30 0 c-29 0 -30 -1 -30 -50 l0 -50 -55 0 -55 0 0
50 c0 47 -2 50 -25 50 l-25 0 0 -135z"/>
<path d="M2916 2091 c-25 -71 -46 -131 -46 -135 0 -3 13 -6 28 -6 22 0 30 7
39 30 10 27 15 30 58 30 43 0 48 -3 58 -30 9 -23 17 -30 39 -30 15 0 28 2 28
4 0 2 -21 63 -46 135 l-46 131 -33 0 -33 0 -46 -129z m108 -18 c7 -21 4 -23
-29 -23 -34 0 -35 1 -29 28 4 15 11 38 17 52 l9 25 13 -30 c7 -16 16 -40 19
-52z"/>
<path d="M3420 2085 l0 -135 25 0 c24 0 25 3 25 60 l0 60 55 0 55 0 0 -60 0
-60 30 0 30 0 0 135 0 135 -30 0 c-29 0 -30 -1 -30 -50 l0 -50 -55 0 -55 0 0
50 c0 47 -2 50 -25 50 l-25 0 0 -135z"/>
<path d="M3690 2085 l0 -135 30 0 30 0 0 135 0 135 -30 0 -30 0 0 -135z"/>
</g>
</svg>
