<?xml version="1.0" standalone="no"?>
<!DOCTYPE svg PUBLIC "-//W3C//DTD SVG 20010904//EN"
 "http://www.w3.org/TR/2001/REC-SVG-20010904/DTD/svg10.dtd">
<svg version="1.0" xmlns="http://www.w3.org/2000/svg"
 width="602.000000pt" height="250.000000pt" viewBox="0 0 602.000000 250.000000"
 preserveAspectRatio="xMidYMid meet">

<g transform="translate(0.000000,250.000000) scale(0.100000,-0.100000)"
fill="#000000" stroke="none">
<path d="M1265 1441 c-115 -53 -158 -186 -97 -302 49 -94 162 -133 257 -90
105 47 155 181 106 286 -49 105 -167 152 -266 106z m156 -24 c48 -32 72 -101
67 -192 -7 -113 -45 -163 -131 -172 -57 -6 -105 21 -131 72 -28 54 -30 194 -3
243 38 70 132 94 198 49z"/>
<path d="M2705 1441 c-131 -61 -167 -242 -70 -350 49 -54 135 -76 202 -50 32
12 80 54 95 84 7 13 -1 9 -23 -12 -61 -57 -122 -67 -190 -32 -58 29 -83 89
-77 180 6 83 33 138 79 161 74 38 144 12 190 -71 l20 -36 -5 55 c-3 30 -6 63
-6 74 0 15 -3 16 -14 7 -11 -9 -25 -10 -53 -2 -55 16 -103 13 -148 -8z"/>
<path d="M4083 1440 c-53 -32 -66 -76 -39 -128 8 -16 48 -47 95 -75 116 -69
138 -111 85 -164 -22 -22 -32 -25 -71 -20 -47 5 -103 46 -103 76 0 9 -5 23
-10 31 -7 10 -10 -7 -10 -59 0 -64 2 -72 15 -61 12 10 24 10 60 0 69 -19 124
-8 162 34 61 67 39 132 -66 193 -122 71 -146 108 -101 153 44 44 128 11 153
-62 l15 -43 1 74 c1 64 -1 72 -14 61 -11 -9 -22 -9 -46 -1 -47 16 -90 13 -126
-9z"/>
<path d="M5267 1448 c-86 -205 -163 -367 -183 -385 l-25 -23 68 1 c58 0 64 2
41 11 -33 12 -34 22 -8 82 l19 46 86 0 86 0 19 -46 c25 -58 25 -69 -2 -82 -19
-9 -8 -11 57 -11 75 0 78 1 54 14 -20 11 -42 49 -89 157 -35 79 -73 167 -86
196 -24 55 -29 60 -37 40z m53 -197 l20 -51 -76 0 c-57 0 -75 3 -71 13 2 6 19
45 38 85 l33 74 18 -35 c10 -20 27 -58 38 -86z"/>
<path d="M118 1440 c26 -11 30 -20 107 -235 31 -88 60 -164 64 -168 4 -4 30
53 56 128 26 75 49 134 50 133 1 -2 24 -61 50 -133 27 -71 50 -132 52 -134 8
-10 17 17 62 181 51 185 61 211 89 227 13 8 1 10 -48 11 -59 0 -63 -1 -40 -13
14 -7 25 -17 25 -22 0 -22 -68 -265 -75 -265 -7 0 -88 222 -92 254 -2 13 6 25
22 33 22 11 16 13 -60 12 -55 0 -78 -3 -65 -9 26 -10 39 -27 53 -67 9 -28 6
-47 -25 -138 -19 -59 -37 -105 -39 -103 -8 9 -94 263 -94 280 0 10 10 23 23
28 16 6 0 9 -58 9 -59 0 -74 -3 -57 -9z"/>
<path d="M695 1443 c43 -11 45 -18 45 -198 0 -180 -2 -187 -45 -198 -11 -2 21
-5 70 -5 50 0 81 3 70 5 -40 10 -45 23 -45 109 l0 84 105 0 105 0 0 -84 c0
-86 -5 -99 -45 -109 -11 -2 21 -5 70 -5 50 0 81 3 70 5 -43 11 -45 18 -45 198
0 180 2 187 45 198 11 2 -20 5 -70 5 -49 0 -81 -3 -70 -5 39 -10 45 -23 45
-104 l0 -79 -105 0 -105 0 0 79 c0 81 6 94 45 104 11 2 -20 5 -70 5 -49 0 -81
-3 -70 -5z"/>
<path d="M1755 1443 c44 -12 45 -18 45 -198 0 -180 -2 -186 -45 -198 -11 -3
43 -5 120 -4 123 2 145 5 182 25 108 57 137 217 56 313 -47 55 -74 63 -233 65
-80 2 -136 0 -125 -3z m249 -33 c102 -49 129 -200 53 -287 -37 -43 -81 -63
-136 -63 -74 0 -71 -7 -71 185 0 129 3 175 13 178 30 13 104 6 141 -13z"/>
<path d="M2205 1443 c43 -11 45 -18 45 -198 0 -180 -2 -187 -45 -198 -11 -3
54 -4 145 -3 l164 1 18 50 19 50 -35 -40 -34 -40 -88 0 -89 0 -3 88 -3 87 68
0 c76 0 88 -5 102 -40 8 -20 10 -9 10 50 0 59 -2 70 -10 50 -14 -35 -26 -40
-101 -40 l-68 0 0 85 0 85 83 0 c91 0 105 -5 123 -47 12 -28 12 -27 13 20 l1
47 -167 -1 c-93 -1 -159 -4 -148 -6z"/>
<path d="M2995 1443 c43 -11 45 -18 45 -198 0 -180 -2 -187 -45 -198 -11 -2
21 -5 70 -5 50 0 81 3 70 5 -43 11 -45 18 -45 198 0 180 2 187 45 198 11 2
-20 5 -70 5 -49 0 -81 -3 -70 -5z"/>
<path d="M3185 1443 c43 -11 45 -18 45 -198 0 -180 -2 -186 -45 -198 -11 -3
43 -5 120 -4 162 3 205 18 251 86 31 47 42 132 24 185 -34 104 -106 137 -294
135 -67 -1 -112 -4 -101 -6z m238 -27 c67 -28 107 -93 107 -171 0 -107 -76
-185 -179 -185 -74 0 -71 -7 -71 185 0 129 3 175 13 178 25 11 99 7 130 -7z"/>
<path d="M3635 1443 c43 -11 45 -18 45 -198 0 -180 -2 -187 -45 -198 -11 -3
54 -4 144 -3 l163 1 20 50 19 50 -35 -40 -34 -40 -88 0 -89 0 -3 88 -3 87 68
0 c76 0 88 -5 102 -40 8 -20 10 -10 10 50 0 73 0 74 -14 43 l-14 -33 -76 0
-75 0 0 85 0 85 83 0 c91 0 105 -5 123 -47 12 -28 12 -27 13 20 l1 47 -167 -1
c-93 -1 -159 -4 -148 -6z"/>
<path d="M4510 1437 c21 -10 37 -46 95 -204 39 -106 73 -194 76 -198 3 -3 28
55 54 130 26 74 48 135 50 135 1 0 24 -59 50 -130 26 -72 51 -132 55 -135 10
-6 7 -14 60 180 49 181 57 202 84 220 19 14 15 15 -44 15 -59 0 -63 -1 -40
-13 14 -7 25 -17 25 -22 0 -22 -68 -265 -75 -265 -9 0 -91 231 -90 258 0 14 9
26 23 32 16 6 -2 9 -63 9 -54 0 -78 -3 -65 -9 26 -10 39 -27 53 -67 9 -28 6
-47 -25 -138 -19 -59 -37 -105 -39 -103 -8 9 -94 263 -94 280 0 10 10 23 23
28 16 6 0 9 -58 9 -71 1 -77 -1 -55 -12z"/>
<path d="M5525 1443 c43 -11 45 -18 45 -198 0 -180 -2 -187 -45 -198 -11 -2
21 -5 70 -5 50 0 81 3 70 5 -39 10 -45 23 -45 105 l0 79 27 -3 c22 -2 41 -22
93 -95 l65 -92 60 0 c55 1 57 2 30 11 -42 15 -52 24 -112 106 -52 70 -59 92
-27 92 9 0 29 13 45 29 54 55 29 139 -49 161 -20 5 -84 9 -142 9 -58 -1 -96
-4 -85 -6z m216 -42 c48 -48 36 -111 -26 -137 -19 -8 -48 -14 -65 -14 l-30 0
0 84 c0 91 2 94 58 95 24 1 42 -7 63 -28z"/>
</g>
</svg>
